<svg width="129" height="30" viewBox="0 0 129 30" fill="none" xmlns="http://www.w3.org/2000/svg">
                <path d="M0 19.8574V10.0756H1.37992V19.8574H0ZM4.79788 19.1034C4.84034 19.1034 4.96772 19.1034 5.15878 19.1034C5.37108 19.1034 5.6046 19.1034 5.90182 19.1034C6.1778 19.1034 6.49625 19.1034 6.81469 19.1034C7.13313 19.1034 7.45158 19.1034 7.74879 19.1034C8.046 19.1034 8.30076 19.1034 8.51306 19.1034C8.72535 19.1034 8.85273 19.1034 8.91642 19.1034C9.44716 19.1034 9.87175 19.0626 10.1902 19.0015C10.5299 18.92 10.8058 18.8385 10.9969 18.7162C11.2092 18.6143 11.3578 18.492 11.4852 18.3697C11.5913 18.2475 11.6975 18.1456 11.8036 18.0437L12.1009 18.2475C12.0159 18.3901 11.9098 18.5531 11.7824 18.7366C11.655 18.92 11.4852 19.1034 11.2729 19.2868C11.0606 19.4498 10.8058 19.6128 10.5086 19.7351C10.2114 19.8574 9.87175 19.9185 9.46839 19.9185C9.27732 19.9185 8.98011 19.9185 8.6192 19.9185C8.2583 19.9185 7.85494 19.9185 7.40912 19.8981C6.9633 19.8981 6.51748 19.8778 6.05043 19.8778C5.58338 19.8778 5.15878 19.8574 4.75542 19.8574C4.35206 19.8574 4.01239 19.837 3.7364 19.837C3.46042 19.837 3.29058 19.837 3.20567 19.837V19.1645L9.21363 10.8092H9.12871C8.91642 10.8092 8.64044 10.8092 8.32199 10.8092C8.00355 10.8092 7.66387 10.7888 7.30297 10.7888C6.94207 10.7888 6.55994 10.7684 6.1778 10.7684C5.79567 10.7684 5.43477 10.7481 5.0951 10.7481C4.75542 10.7277 4.45821 10.7277 4.18223 10.7277C3.90624 10.7277 3.69395 10.7073 3.54534 10.7073L3.63026 10.0756H10.8271V10.6869L4.79788 19.1034ZM21.2932 16.4134C21.2932 16.9025 21.2083 17.3712 21.0173 17.7991C20.8474 18.2271 20.5714 18.6143 20.2105 18.9403C19.8496 19.2664 19.4251 19.5313 18.8943 19.7147C18.3636 19.8982 17.7691 20 17.0686 20C16.4954 20 15.9859 19.9389 15.5188 19.8166C15.0518 19.6944 14.6696 19.511 14.33 19.2256C14.0115 18.9607 13.7568 18.5939 13.5657 18.1456C13.3959 17.6972 13.3109 17.1674 13.3109 16.5356V10.0756H14.6484V16.7394C14.6484 17.2285 14.7121 17.6361 14.8182 17.9622C14.9244 18.2882 15.0942 18.5328 15.3065 18.7366C15.5188 18.92 15.7736 19.0422 16.092 19.1238C16.4104 19.2053 16.7714 19.246 17.1747 19.246C17.6842 19.246 18.1301 19.2053 18.5122 19.1034C18.8943 19.0015 19.2128 18.8384 19.4038 18.6347C19.5737 18.4512 19.7223 18.1863 19.8072 17.8603C19.8921 17.5342 19.9346 17.147 19.9346 16.7191V10.0959H21.272V16.4134H21.2932ZM33.9248 19.8574L33.0969 12.3987L29.5091 19.8574H28.8722L24.9872 12.3987L24.3078 19.8574H23.395L24.4352 10.0144H25.2632L29.4029 18.0437L33.288 10.0144H34.1371L35.2623 19.8574H33.9248ZM37.4065 19.8574V10.0756H38.7864V19.8574H37.4065Z" fill="url(#paint0_radial_104_41)"/>
                <path d="M44.3926 19.8574V10.0756H45.7725V19.8574H44.3926ZM50.2944 19.8574V10.8296L47.1524 10.7888L47.2586 10.0756H54.8163L54.7102 10.7481L51.6743 10.8296V19.8574H50.2944ZM63.0534 19.9797C62.3103 19.9797 61.6947 19.8574 61.1852 19.6129C60.6757 19.3683 60.2511 19.0219 59.9326 18.5939C59.6142 18.1456 59.3807 17.6157 59.2321 17.0044C59.0834 16.3726 59.0198 15.6797 59.0198 14.9257C59.0198 13.9883 59.1684 13.2139 59.4443 12.5822C59.7203 11.9504 60.0812 11.441 60.527 11.0538C60.9729 10.6666 61.4824 10.3812 62.0344 10.2182C62.5863 10.0552 63.1595 9.95329 63.7115 9.95329C63.9238 9.95329 64.1361 9.95329 64.3908 9.97367C64.6456 9.99405 64.8791 9.99405 65.1339 10.0144C65.3674 10.0348 65.6009 10.0552 65.792 10.0756C66.0043 10.0959 66.1741 10.1163 66.2803 10.1367L65.9194 11.2983C65.792 11.2575 65.6009 11.2168 65.3674 11.1556C65.1339 11.0945 64.8791 11.0538 64.5819 11.013C64.3059 10.9722 64.0512 10.9315 63.7752 10.9111C63.4992 10.8703 63.2869 10.8703 63.1171 10.8703C62.7137 10.8703 62.374 10.9111 62.098 10.9722C61.8221 11.0334 61.5461 11.1556 61.2913 11.3391C60.9941 11.5632 60.7818 11.9912 60.6544 12.6025C60.5271 13.2139 60.4846 13.9883 60.4846 14.9053C60.4846 16.3115 60.6969 17.3916 61.1215 18.1252C61.5461 18.8588 62.2467 19.2053 63.202 19.2053C63.478 19.2053 63.7327 19.2053 64.0299 19.1849C64.3059 19.1645 64.6031 19.1441 64.8791 19.1034C65.1551 19.0626 65.4523 19.0219 65.7071 18.9607C65.9831 18.8996 66.2378 18.8385 66.4713 18.7569V19.2664C66.2166 19.3887 65.9618 19.4906 65.6646 19.5721C65.3886 19.6536 65.0914 19.7351 64.7942 19.7963C64.497 19.8574 64.1998 19.8982 63.9026 19.9389C63.6053 19.9797 63.3294 19.9797 63.0534 19.9797ZM77.723 14.9257C77.723 15.7001 77.6168 16.4134 77.4046 17.0247C77.1923 17.6565 76.8951 18.1863 76.4705 18.6143C76.0671 19.0626 75.5364 19.3887 74.9207 19.6332C74.305 19.8778 73.5832 19.9797 72.7553 19.9797C71.9273 19.9797 71.2055 19.8574 70.5899 19.6129C69.9742 19.3683 69.4859 19.0219 69.1038 18.5939C68.7217 18.1456 68.4245 17.6157 68.2546 17.0044C68.0848 16.3726 67.9786 15.6797 67.9786 14.9257C67.9786 14.1717 68.0636 13.4788 68.2546 12.8675C68.4457 12.2561 68.7217 11.7466 69.125 11.3187C69.5072 10.8907 70.0167 10.5443 70.6111 10.3201C71.2055 10.0959 71.9273 9.97367 72.7553 9.97367C73.5832 9.97367 74.305 10.0959 74.9207 10.3201C75.5364 10.5443 76.0459 10.8907 76.4705 11.3187C76.8738 11.7466 77.1923 12.2561 77.4046 12.8675C77.6168 13.4788 77.723 14.1513 77.723 14.9257ZM76.2369 14.9257C76.2369 14.294 76.1732 13.7234 76.0459 13.2139C75.9185 12.7044 75.7062 12.2561 75.409 11.8893C75.133 11.5225 74.7721 11.2372 74.3263 11.0334C73.9017 10.8296 73.3709 10.7277 72.7765 10.7277C72.2458 10.7277 71.7575 10.7888 71.3117 10.8907C70.8659 10.9926 70.5049 11.1556 70.229 11.3798C70.0804 11.5021 69.953 11.6855 69.8681 11.9097C69.7619 12.1542 69.6982 12.4191 69.6345 12.7452C69.5708 13.0509 69.5284 13.3973 69.5072 13.7845C69.4859 14.1513 69.4647 14.5385 69.4647 14.9461C69.4647 15.5575 69.5284 16.1281 69.6345 16.6579C69.7407 17.1878 69.9317 17.6361 70.1865 18.0233C70.4413 18.4105 70.7809 18.6958 71.1843 18.92C71.6089 19.1441 72.1396 19.246 72.7765 19.246C73.3709 19.246 73.9017 19.1849 74.305 19.083C74.7296 18.9811 75.1118 18.7773 75.4302 18.5124C75.5788 18.3901 75.7062 18.2271 75.7911 17.9826C75.8973 17.738 75.9822 17.4527 76.0459 17.1266C76.1096 16.8006 76.152 16.4541 76.1945 16.0669C76.2369 15.6797 76.2369 15.3129 76.2369 14.9257ZM90.0574 19.8574L89.2294 12.3988L85.6416 19.8574H85.0047L81.1197 12.3988L80.4404 19.8574H79.5275L80.5678 10.0144H81.3957L85.5355 18.0437L89.4205 10.0144H90.2697L91.3948 19.8574H90.0574ZM95.4709 15.4352L95.7681 15.3944C96.129 15.3333 96.4687 15.2722 96.7872 15.1703C97.1056 15.0684 97.4028 14.9257 97.6363 14.7423C97.8699 14.5589 98.0609 14.3144 98.2095 14.0087C98.3581 13.703 98.4218 13.2954 98.4218 12.786C98.4218 12.4191 98.3581 12.0931 98.252 11.8281C98.1246 11.5632 97.976 11.3391 97.7637 11.176C97.5514 11.013 97.2967 10.8703 96.9782 10.7888C96.681 10.7073 96.3413 10.6666 95.9804 10.6666C95.7894 10.6666 95.6195 10.6665 95.4921 10.6869C95.3435 10.6869 95.1737 10.7073 94.9826 10.7277V19.837H93.6027V10.0959C94.0273 10.0552 94.4731 10.0348 94.9826 10.0144C95.4922 9.99405 95.9804 9.99405 96.4687 9.99405C97.0631 9.99405 97.5727 10.0552 98.0185 10.1775C98.4643 10.2997 98.8252 10.4831 99.1012 10.7277C99.3772 10.9519 99.5895 11.2372 99.7381 11.5836C99.8867 11.9097 99.9504 12.2969 99.9504 12.7044C99.9504 13.1528 99.8654 13.5603 99.6956 13.9272C99.5258 14.294 99.271 14.6404 98.9101 14.9257C98.5704 15.211 98.1246 15.4352 97.5939 15.5982C97.0631 15.7613 96.4263 15.8428 95.6832 15.8428H95.5983L95.4709 15.4352ZM107.466 19.8574L106.192 16.2707L102.264 16.3115L100.884 19.837H99.8654L103.899 10.1367L105.088 9.81064L108.867 19.837H107.466V19.8574ZM105.98 15.639L104.281 11.0741L102.519 15.639H105.98ZM118.293 19.8982L111.096 12.2765H111.075C111.096 12.9897 111.096 13.6622 111.117 14.2532C111.117 14.5181 111.117 14.7627 111.117 15.0276C111.117 15.2722 111.117 15.4963 111.117 15.7205C111.117 15.9243 111.117 16.1077 111.117 16.2707C111.117 16.4338 111.117 16.5357 111.117 16.5764V19.8778H110.204V10.0348H110.82L118.017 17.6361C117.995 16.9636 117.995 16.3522 117.995 15.7816C117.995 15.5371 117.995 15.2925 117.995 15.048C117.995 14.8035 117.995 14.5589 117.995 14.3551C117.995 14.1309 117.995 13.9272 117.995 13.7641C117.995 13.6011 117.995 13.4585 117.995 13.3566V10.1163H118.908V19.9389H118.293V19.8982ZM125.129 19.8574H123.791V16.1077L120.288 10.0756H121.838L124.704 15.2722L127.379 10.0756H128.334L125.129 16.1077V19.8574Z" fill="#333333"/>
                <path d="M79.9083 5.61256C80.2055 5.30688 80.8848 4.8993 81.1608 4.94006C81.4368 4.98082 82.0525 4.96043 83.3475 6.75377C84.3877 8.18029 85.343 10.2385 85.7039 10.7276C85.9799 9.56605 85.7464 6.93719 84.2179 4.73627C83.1989 3.37089 82.6681 3.04483 82.5195 3.06521C82.562 2.98369 82.5832 2.73914 82.7106 2.31119C82.8379 1.88323 83.1139 1.78134 83.1139 1.74059C82.9653 1.67945 82.4983 1.53679 82.286 1.55717C82.0737 1.59793 81.543 1.8221 81.2882 1.94437C81.1184 1.65907 80.4178 1.06809 79.1228 0.66051C76.2143 -0.276915 74.2187 -0.0527558 73.2422 0.334442C73.9852 0.619745 75.1529 0.986571 76.1506 1.37377C77.573 1.90362 78.3797 2.29081 78.6769 2.53535C78.9954 2.80028 79.42 3.24861 79.42 3.75808C79.42 4.24717 79.1228 4.63438 78.9954 4.79741C78.868 4.94006 77.1272 6.61112 77.1272 6.61112L78.6982 5.959L78.2099 7.6912C78.677 7.10022 79.6323 5.93862 79.9083 5.61256Z" fill="url(#paint1_radial_104_41)"/>
                <defs>
                <radialGradient id="paint0_radial_104_41" cx="0" cy="0" r="1" gradientUnits="userSpaceOnUse" gradientTransform="translate(63.5909 16.287) rotate(-90.2759) scale(23.4752 96.3995)">
                <stop stop-color="#00CC99"/>
                <stop offset="1" stop-color="#009B74"/>
                </radialGradient>
                <radialGradient id="paint1_radial_104_41" cx="0" cy="0" r="1" gradientUnits="userSpaceOnUse" gradientTransform="translate(79.5354 5.36096) rotate(-90.3876) scale(8.02386 9.27831)">
                <stop stop-color="#00CC99"/>
                <stop offset="1" stop-color="#009B74"/>
                </radialGradient>
                </defs>
            </svg>